<svg class="mi-svg" version="1.0" xmlns="http://www.w3.org/2000/svg"
 width="100%" height="100%" viewBox="511.4 357.0 516.7 288.0"
 preserveAspectRatio="xMidYMid meet">

<g class="mi-dibujo" transform="translate(0.000000,1024.000000) scale(0.100000,-0.100000)" stroke="none">

<path d="M10090 6544 c-102 -69 -477 -321 -835 -558 -963 -641 -1109 -737
-2195 -1448 -173 -114 -323 -213 -334 -221 -17 -12 -12 -22 87 -163 58 -82
139 -197 179 -256 40 -59 76 -107 80 -108 5 0 108 93 231 208 123 114 313 288
422 387 110 99 234 212 275 250 126 117 817 741 1389 1253 174 156 407 360
518 453 111 93 205 173 208 179 3 5 16 15 28 22 60 32 -341 -371 -1063 -1067
-611 -589 -671 -647 -858 -825 -95 -90 -169 -166 -164 -168 9 -3 332 75 667
161 l170 44 66 94 c36 52 121 175 190 274 220 317 238 342 549 780 86 121 192
271 236 334 43 62 137 195 208 295 118 167 144 206 135 206 -2 0 -87 -57 -189
-126z"/>
<path d="M9810 6519 c-69 -22 -262 -80 -430 -130 -385 -114 -588 -175 -1125
-337 -236 -72 -484 -146 -550 -165 -66 -19 -286 -85 -490 -147 -661 -200
-1028 -310 -1108 -332 -47 -13 -73 -24 -65 -29 7 -4 74 -14 148 -23 74 -9 267
-35 428 -57 l292 -42 58 26 c31 14 192 82 357 152 165 70 471 200 680 290 209
89 511 217 670 285 660 279 819 346 1000 425 105 45 211 90 238 100 26 10 47
19 47 21 0 8 -30 1 -150 -37z"/>
<path d="M9620 6336 c-84 -36 -354 -159 -665 -304 -416 -193 -822 -382 -1075
-499 -124 -58 -283 -132 -354 -165 -71 -32 -177 -82 -235 -110 -58 -28 -158
-74 -221 -103 -63 -29 -207 -95 -320 -148 -113 -52 -331 -153 -485 -225 -901
-417 -1154 -536 -1151 -540 2 -1 156 16 342 38 186 21 474 53 638 70 l300 31
145 88 c80 48 236 141 346 206 307 182 1318 788 2708 1623 108 65 115 75 27
38z"/>
</g>
</svg>